#define 89b8aaa0f1514e4f98c3fccfa88795e9mJ8BQa9onbwlG54G_width 64
#define 89b8aaa0f1514e4f98c3fccfa88795e9mJ8BQa9onbwlG54G_height 64
static char 89b8aaa0f1514e4f98c3fccfa88795e9mJ8BQa9onbwlG54G_bits[] = {
  0x00, 0x00, 0x00, 0x80, 0x08, 0x00, 0x00, 0x00, 0x00, 0x00, 0x00, 0x50, 
  0x02, 0x00, 0x00, 0x00, 0x00, 0x00, 0x00, 0x12, 0x5C, 0x06, 0x00, 0x00, 
  0x00, 0x00, 0x88, 0xC8, 0x41, 0x02, 0x00, 0x00, 0x00, 0x00, 0x82, 0x25, 
  0x46, 0x62, 0x00, 0x00, 0x00, 0x00, 0x34, 0x41, 0x50, 0x0A, 0x00, 0x00, 
  0x00, 0x00, 0x4A, 0x3C, 0x29, 0x94, 0x04, 0x00, 0x00, 0x20, 0xA2, 0x82, 
  0x89, 0x91, 0x00, 0x00, 0x00, 0x40, 0x22, 0x16, 0xC4, 0x18, 0x02, 0x00, 
  0x00, 0x54, 0x4A, 0xC0, 0x16, 0x42, 0x0C, 0x00, 0x00, 0x20, 0x34, 0x29, 
  0x12, 0xA5, 0x01, 0x00, 0x00, 0x88, 0x81, 0x49, 0xC8, 0x24, 0x65, 0x00, 
  0x00, 0x38, 0x6C, 0xA8, 0x49, 0x92, 0x28, 0x00, 0x00, 0x83, 0x81, 0x02, 
  0x18, 0x95, 0xA2, 0x00, 0x00, 0x84, 0xFD, 0xFF, 0xFF, 0x02, 0x45, 0x00, 
  0xA0, 0x32, 0xFF, 0x7F, 0xFF, 0x69, 0x14, 0x01, 0x80, 0x91, 0xE7, 0x00, 
  0x00, 0x67, 0xC4, 0x04, 0x00, 0xE4, 0x5B, 0x00, 0x00, 0x16, 0x15, 0x02, 
  0x50, 0xCA, 0xE5, 0x00, 0x00, 0x8E, 0x12, 0x0A, 0x40, 0xD2, 0xDA, 0x00, 
  0x00, 0xA4, 0xC8, 0x01, 0x40, 0xD2, 0xFF, 0x3C, 0x00, 0x1C, 0x25, 0x01, 
  0x54, 0xCA, 0xFF, 0x00, 0x00, 0x44, 0x41, 0x0C, 0x28, 0x94, 0xC5, 0x00, 
  0x00, 0xA6, 0x3C, 0x02, 0x88, 0x91, 0x72, 0x00, 0x00, 0x2E, 0x82, 0x04, 
  0xC0, 0x18, 0xC4, 0xFC, 0x61, 0x54, 0x68, 0x45, 0x14, 0x42, 0xD5, 0x00, 
  0x00, 0x16, 0x03, 0x11, 0x12, 0xA5, 0x52, 0x00, 0x00, 0xC4, 0x94, 0x1C, 
  0xC8, 0x24, 0xE9, 0xFC, 0x61, 0x2E, 0x92, 0x01, 0x48, 0x4A, 0xE4, 0x10, 
  0x00, 0x84, 0x24, 0x46, 0x29, 0x24, 0x42, 0x00, 0x00, 0x36, 0x65, 0x50, 
  0xC0, 0xC3, 0xDC, 0x00, 0x00, 0x44, 0x40, 0x29, 0x16, 0x18, 0xC1, 0xFC, 
  0x61, 0x26, 0x1B, 0x89, 0x82, 0x16, 0x51, 0x00, 0x00, 0x54, 0xC4, 0x44, 
  0x3C, 0xC0, 0xEC, 0x00, 0x00, 0x16, 0x15, 0x52, 0x42, 0x29, 0xC1, 0x6C, 
  0x20, 0x84, 0x12, 0x2C, 0x24, 0x49, 0x65, 0x6C, 0x61, 0x6E, 0xC8, 0x41, 
  0xC8, 0x28, 0xE8, 0x00, 0x00, 0x64, 0x09, 0x38, 0x12, 0xA6, 0xE2, 0x00, 
  0x00, 0x06, 0x69, 0x03, 0x14, 0x12, 0x45, 0xFE, 0x61, 0x94, 0x40, 0x44, 
  0xC4, 0xC8, 0x54, 0x00, 0x00, 0x96, 0x96, 0x12, 0x44, 0x22, 0xF2, 0x00, 
  0x00, 0x14, 0x68, 0x32, 0x50, 0x4A, 0x44, 0x00, 0x00, 0x64, 0x03, 0x04, 
  0x20, 0x34, 0xD3, 0x00, 0xF0, 0xFF, 0x97, 0x03, 0x80, 0x81, 0xC8, 0x00, 
  0xF8, 0xFF, 0x93, 0x08, 0x90, 0x8C, 0xD6, 0x00, 0xB8, 0xF7, 0x1B, 0x06, 
  0x20, 0x31, 0xC0, 0x00, 0x6C, 0xD7, 0x43, 0x00, 0x50, 0x4A, 0xA9, 0x01, 
  0xFE, 0xBE, 0xA5, 0x01, 0x40, 0x22, 0x49, 0x03, 0x9E, 0xE9, 0x25, 0x02, 
  0x00, 0x89, 0x22, 0xFF, 0xFF, 0xFF, 0x24, 0x01, 0x00, 0x29, 0x4A, 0xFC, 
  0xFF, 0x3F, 0x65, 0x01, 0x00, 0x50, 0x34, 0x10, 0x11, 0x91, 0x42, 0x00, 
  0x00, 0x46, 0x81, 0xCB, 0x6A, 0xA6, 0x18, 0x00, 0x00, 0x46, 0x8C, 0x24, 
  0x24, 0x14, 0x09, 0x00, 0x00, 0x50, 0x31, 0x42, 0xA9, 0x45, 0x29, 0x00, 
  0x00, 0x88, 0x49, 0x3C, 0x48, 0xA8, 0x00, 0x00, 0x00, 0x30, 0x22, 0x81, 
  0x13, 0x23, 0x16, 0x00, 0x00, 0x00, 0x91, 0x14, 0x44, 0x4C, 0x01, 0x00, 
  0x00, 0x40, 0x94, 0xC3, 0x52, 0x21, 0x00, 0x00, 0x00, 0x00, 0x02, 0x28, 
  0x2C, 0xC9, 0x00, 0x00, 0x00, 0x00, 0x62, 0x4A, 0x81, 0x12, 0x00, 0x00, 
  0x00, 0x00, 0x20, 0x24, 0x36, 0x00, 0x00, 0x00, 0x00, 0x00, 0x00, 0xA5, 
  0x80, 0x04, 0x00, 0x00, 0x00, 0x00, 0x00, 0x91, 0x89, 0x00, 0x00, 0x00, 
  0x00, 0x00, 0x00, 0x00, 0x01, 0x00, 0x00, 0x00, };
